<svg xmlns="http://www.w3.org/2000/svg" version="1.1" xmlns:xlink="http://www.w3.org/1999/xlink" xmlns:svgjs="http://svgjs.com/svgjs" width="512" height="512" x="0" y="0" viewBox="0 0 24 24" style="enable-background:new 0 0 512 512" xml:space="preserve" class=""><g><path id="user-edit" d="m10.009 10.75a4.25 4.25 0 1 0 -4.25-4.25 4.255 4.255 0 0 0 4.25 4.25zm0-7a2.75 2.75 0 1 1 -2.75 2.75 2.753 2.753 0 0 1 2.75-2.75zm-6.259 14.27c0 1.563.673 2.23 2.25 2.23h4a.75.75 0 0 1 0 1.5h-4c-2.418 0-3.75-1.325-3.75-3.73 0-2.662 1.506-5.77 5.75-5.77h4a6.456 6.456 0 0 1 2.264.368.75.75 0 0 1 -.528 1.4 4.955 4.955 0 0 0 -1.736-.268h-4a3.959 3.959 0 0 0 -4.25 4.27zm18.487-4.144-1.114-1.113a1.734 1.734 0 0 0 -1.237-.513 1.737 1.737 0 0 0 -1.238.515l-6.177 6.206a.745.745 0 0 0 -.219.529v2.5a.75.75 0 0 0 .75.75h2.5a.753.753 0 0 0 .529-.218l6.2-6.178a1.748 1.748 0 0 0 0-2.478zm-7.047 7.374h-1.44v-1.44l4.122-4.141 1.459 1.459zm5.986-5.959-.782.779-1.463-1.464.779-.783a.247.247 0 0 1 .176-.073.252.252 0 0 1 .177.073l1.114 1.114a.244.244 0 0 1 .073.176.25.25 0 0 1 -.074.178z" fill="#000000" data-original="#000000" class=""></path></g></svg>