<svg xmlns="http://www.w3.org/2000/svg" version="1.1" xmlns:xlink="http://www.w3.org/1999/xlink" xmlns:svgjs="http://svgjs.com/svgjs" width="512" height="512" x="0" y="0" viewBox="0 0 512 512" style="enable-background:new 0 0 512 512" xml:space="preserve" class=""><g><path fill-rule="evenodd" d="M254.54 8.058c-136.726 0-247.8 111.078-247.8 247.803s111.075 247.796 247.8 247.796 247.8-111.07 247.8-247.796S391.266 8.058 254.54 8.058zm148.34 327.9c-1.693 4.115-9.68 9.919-37.75 14.28-2.42.478-3.145 3.384-4.598 9.68a69.552 69.552 0 0 1-1.693 6.774c-.727 2.174-1.937 3.145-4.114 3.145h-.243a24.604 24.604 0 0 1-6.291-.97 105.26 105.26 0 0 0-16.94-1.69 69.96 69.96 0 0 0-12.1.965c-8.47 1.456-15.487 6.535-23.23 11.86-10.89 7.745-22.264 15.729-39.93 15.729h-3.871c-17.666 0-29.04-7.984-39.929-15.73-7.501-5.325-14.761-10.404-23.23-11.86a69.962 69.962 0 0 0-12.1-.963 88.571 88.571 0 0 0-16.94 1.934 36.274 36.274 0 0 1-6.293.964 4.006 4.006 0 0 1-4.355-3.144c-.726-2.42-1.21-4.84-1.695-7.014-1.21-5.81-2.177-9.201-4.597-9.68-28.072-4.361-36.057-10.165-37.751-14.28a5.692 5.692 0 0 1-.484-1.935 3.11 3.11 0 0 1 2.662-3.144c43.075-7.26 62.434-51.304 63.16-53.239h.243c2.661-5.325 3.145-10.165 1.451-13.794-2.904-7.021-12.584-10.166-18.875-12.1a45.606 45.606 0 0 1-4.356-1.457c-12.826-5.079-13.794-10.158-13.31-12.824.968-4.594 6.776-7.745 11.857-7.745a7.714 7.714 0 0 1 3.388.732c5.808 2.659 10.89 4.108 15.246 4.108 6.292 0 8.953-2.66 9.195-2.898 0-2.906-.242-6.05-.483-9.202-1.21-20.323-2.904-45.732 3.63-60.252 19.359-43.319 60.256-46.703 72.355-46.703h6.05c12.1 0 53.239 3.384 72.598 46.703 6.534 14.52 4.84 39.93 3.63 60.252v.971c-.242 2.66-.484 5.565-.484 8.23.242.24 2.662 2.66 8.228 2.899 4.356-.24 9.196-1.689 14.52-4.108a11.957 11.957 0 0 1 4.597-.971 12.096 12.096 0 0 1 5.082 1.21h.242c4.114 1.449 7.018 4.6 7.018 7.745.241 2.905-2.179 7.499-13.31 11.853-1.21.486-2.662.971-4.114 1.457-6.534 1.934-16.214 5.079-19.118 12.1-1.693 3.63-1.21 8.47 1.452 13.794h.242c.726 1.935 20.086 45.979 63.16 53.239a3.11 3.11 0 0 1 2.662 3.144 5.673 5.673 0 0 1-.484 1.935z" fill="#075e54" data-original="#000000" class=""></path></g></svg>